# xmcd
# Track frame offsets:
# 150
# 20347
# 41061
# 60241
# 75930
# 95046
# 112715
# 130802
# 148253
# 165934
# 184493
# 206196
# 228658
# 251228
# 276865
#
# Disc length: 3955 seconds
# Revision: 0
# Processed by: cddbd v1.5.1PL0 Copyright (c) Steve Scherf et al.
# Submitted via: VisiTrax 2.9.10.228 - For more info visit www.synapsa.com
#
DISCID=d00f710f
DTITLE=Hill, Faith - CB90080
DYEAR=1900
DGENRE=Karaoke
TTITLE0=Secret Of Life, The
TTITLE1=Just To Hear You Say That You Love Me
TTITLE2=Breathe
TTITLE3=Way You Love Me, The
TTITLE4=It Will Be Me
TTITLE5=I Got My Baby
TTITLE6=If I'm Not In Love
TTITLE7=Bringing Out The Elvis
TTITLE8=If My Heart Had Wings
TTITLE9=Love Is A Sweet Thing
TTITLE10=That's How Love Moves
TTITLE11=If I Should Fall Behind
TTITLE12=There Will Come A Day
TTITLE13=What's In It For Me
TTITLE14=Let's Make Love
EXTD=
EXTT0=
EXTT1=
EXTT2=
EXTT3=
EXTT4=
EXTT5=
EXTT6=
EXTT7=
EXTT8=
EXTT9=
EXTT10=
EXTT11=
EXTT12=
EXTT13=
EXTT14=
PLAYORDER=
